# xmcd CD database file
#
# Track frame offsets:
#	150
#	20492
#	31062
#	43118
#	68745
#	82260
#	95881
#	108351
#	121509
#	135872
#	145910
#	161255
#	172531
#	184354
#
# Disc length: 2680 seconds
#
# Revision: 0
# Processed by: cddbd v1.5.1PL0 Copyright (c) Steve Scherf et al.
# Submitted via: CDex 1.51
#
DISCID=ad0a760e
DTITLE=The KB band - The dancer who stole your shoes
DYEAR=2004
DGENRE=Blues
TTITLE0=Frankly my dear
TTITLE1=Penultimate Whiskey
TTITLE2=The Dancer who stole your shoes
TTITLE3=Recollectios of Shannon
TTITLE4=Who you are
TTITLE5=Make his day
TTITLE6=Don't touch my hair
TTITLE7=Garcia's lorry journey (Funkin Ridiculous)
TTITLE8=A kind of friend
TTITLE9=In your eyes
TTITLE10=Mystery to me
TTITLE11=I don't get to choose
TTITLE12=Hotpants Campbell
TTITLE13=Telephone conversations
EXTD=YEAR: 2004
EXTT0=
EXTT1=
EXTT2=
EXTT3=
EXTT4=
EXTT5=
EXTT6=
EXTT7=
EXTT8=
EXTT9=
EXTT10=
EXTT11=
EXTT12=
EXTT13=
PLAYORDER=
